<?xml version="1.0" encoding="utf-8"?>
<!-- Generator: Adobe Illustrator 21.1.0, SVG Export Plug-In . SVG Version: 6.00 Build 0)  -->
<svg version="1.1" id="Calque_1" xmlns="http://www.w3.org/2000/svg" xmlns:xlink="http://www.w3.org/1999/xlink" x="0px" y="0px"
	 viewBox="0 0 73 91.2" style="enable-background:new 0 0 73 91.2;" xml:space="preserve">
<style type="text/css">
	.st0{fill:#E28139;}
</style>
<g>
	<path class="st0" d="M14.3,45.4c1.4,0,2.7-0.6,4-1.9l-1.6-1.8C16,42.6,15.2,43,14.3,43c-0.7,0-1.3-0.2-1.7-0.7
		c-0.5-0.4-0.7-1.1-0.7-1.9c0-0.8,0.2-1.4,0.7-1.9s1.1-0.7,1.8-0.7c0.4,0,0.9,0.1,1.3,0.3s0.8,0.5,1.1,0.8l1.4-1.8
		c-0.5-0.6-1.1-1-1.8-1.2c-0.7-0.3-1.4-0.4-2.1-0.4c-1.4,0-2.5,0.5-3.5,1.4S9.3,39,9.3,40.4s0.5,2.6,1.5,3.5
		C11.7,45,12.9,45.4,14.3,45.4z"/>
	<polygon class="st0" points="25.3,45.3 29,35.8 26.3,35.8 23.9,41.8 21.6,35.8 18.8,35.8 22.6,45.3 	"/>
	<path class="st0" d="M9.3,54.7H29c1.1,0,2-0.9,2-2s-0.9-2-2-2H9.3c-1.1,0-2,0.9-2,2S8.2,54.7,9.3,54.7z"/>
	<path class="st0" d="M9.3,63.8H29c1.1,0,2-0.9,2-2s-0.9-2-2-2H9.3c-1.1,0-2,0.9-2,2S8.2,63.8,9.3,63.8z"/>
	<path class="st0" d="M46.5,24.6c6.9,0,12.6-5.6,12.6-12.6c0-6.9-5.6-12.6-12.6-12.6C39.6-0.5,34,5.1,34,12.1
		C34,19,39.6,24.6,46.5,24.6z M46.5,3.5c4.7,0,8.6,3.8,8.6,8.6s-3.8,8.6-8.6,8.6c-4.7,0-8.6-3.8-8.6-8.6S41.8,3.5,46.5,3.5z"/>
	<path class="st0" d="M52.8,27.5L52.8,27.5c-1-0.2-2,0.3-2.3,1.2l-3.9,9.8l-3.9-9.8c-0.4-0.9-1.4-1.4-2.3-1.2l0,0
		c-0.9,0.2-1.8,0.5-2.6,0.8c-0.3-0.7-1-1.2-1.8-1.2H2.5c-1.1,0-2,0.9-2,2v40.4c0,1.1,0.9,2,2,2h33.3c1.1,0,2-0.9,2-2V54.7h32.7
		c1.1,0,2-0.9,2-2C72.5,40.7,64.4,30.3,52.8,27.5z M33.8,67.5H4.5V31.1h29.3V67.5z M37.8,50.7V32.5c0.6-0.3,1.2-0.5,1.8-0.7
		l5.1,12.8c0.7,1.7,3,1.7,3.7,0l5.1-12.8c8.3,2.7,14.1,10.1,14.9,18.8H37.8V50.7z"/>
</g>
</svg>
