<?xml version="1.0" encoding="utf-8"?>
<!-- Generator: Adobe Illustrator 21.1.0, SVG Export Plug-In . SVG Version: 6.00 Build 0)  -->
<svg version="1.1" id="Calque_1" xmlns="http://www.w3.org/2000/svg" xmlns:xlink="http://www.w3.org/1999/xlink" x="0px" y="0px"
	 viewBox="0 0 512 640" style="enable-background:new 0 0 512 640;" xml:space="preserve">
<style type="text/css">
	.st0{fill:#E28139;}
</style>
<g>
	<g>
		<g>
			<path class="st0" d="M506,256c0,66.8-26,129.6-73.2,176.8S322.8,506,256,506s-129.6-26-176.8-73.2S6,322.8,6,256
				S32,126.4,79.2,79.2S189.2,6,256,6s129.6,26,176.8,73.2S506,189.2,506,256z M26,256c0,126.8,103.2,230,230,230s230-103.2,230-230
				S382.8,26,256,26S26,129.2,26,256z"/>
			<g>
				<g>
					<path class="st0" d="M360.7,250.5L360.7,250.5c8.5,8.4,8.5,22.2,0,30.7l-89.2,89.3c-8.4,8.5-22.2,8.5-30.7,0l-89.4-89.4
						c-8.5-8.4-8.5-22.2,0-30.7l0,0c8.4-8.5,22.2-8.5,30.7,0l58.6,58.5c8.4,8.5,22.2,8.5,30.7,0l58.5-58.5
						C338.4,242,352.1,242,360.7,250.5z"/>
					<path class="st0" d="M360.7,141.5L360.7,141.5c8.5,8.4,8.5,22.2,0,30.7l-89.2,89.3c-8.4,8.5-22.2,8.5-30.7,0l-89.4-89.4
						c-8.5-8.4-8.5-22.2,0-30.7l0,0c8.4-8.5,22.2-8.5,30.7,0l58.6,58.5c8.4,8.5,22.2,8.5,30.7,0l58.5-58.5
						C338.4,133,352.1,133,360.7,141.5z"/>
				</g>
			</g>
		</g>
	</g>
</g>
</svg>
