<?xml version="1.0" encoding="utf-8"?>
<!-- Generator: Adobe Illustrator 21.1.0, SVG Export Plug-In . SVG Version: 6.00 Build 0)  -->
<svg version="1.1" id="Calque_1" xmlns="http://www.w3.org/2000/svg" xmlns:xlink="http://www.w3.org/1999/xlink" x="0px" y="0px"
	 viewBox="0 0 100 125" style="enable-background:new 0 0 100 125;" xml:space="preserve">
<style type="text/css">
	.st0{fill:#E28139;}
</style>
<g>
	<path class="st0" d="M85,13.8H75c-0.7,0-1.2,0.6-1.2,1.2s0.6,1.2,1.2,1.2h10c4.8,0,8.8,3.9,8.8,8.8v10c0,0.7,0.6,1.2,1.2,1.2
		s1.2-0.6,1.2-1.2V25C96.2,18.8,91.2,13.8,85,13.8z"/>
	<path class="st0" d="M25,13.8H15c-6.2,0-11.2,5-11.2,11.2v10c0,0.7,0.6,1.2,1.2,1.2s1.2-0.6,1.2-1.2V25c0-4.8,3.9-8.8,8.8-8.8h10
		c0.7,0,1.2-0.6,1.2-1.2S25.7,13.8,25,13.8z"/>
	<path class="st0" d="M25,83.8H15c-4.8,0-8.8-3.9-8.8-8.8V65c0-0.7-0.6-1.2-1.2-1.2S3.8,64.3,3.8,65v10c0,6.2,5,11.2,11.2,11.2h10
		c0.7,0,1.2-0.6,1.2-1.2S25.7,83.8,25,83.8z"/>
	<path class="st0" d="M95,63.8c-0.7,0-1.2,0.6-1.2,1.2v10c0,4.8-3.9,8.8-8.8,8.8H75c-0.7,0-1.2,0.6-1.2,1.2s0.6,1.2,1.2,1.2h10
		c6.2,0,11.2-5,11.2-11.2V65C96.2,64.3,95.7,63.8,95,63.8z"/>
	<path class="st0" d="M70,48.8H51.2V30c0-0.7-0.6-1.2-1.2-1.2s-1.2,0.6-1.2,1.2v18.8H30c-0.7,0-1.2,0.6-1.2,1.2s0.6,1.2,1.2,1.2
		h18.8V70c0,0.7,0.6,1.2,1.2,1.2s1.2-0.6,1.2-1.2V51.2H70c0.7,0,1.2-0.6,1.2-1.2S70.7,48.8,70,48.8z"/>
</g>
</svg>
