<?xml version="1.0" encoding="utf-8"?>
<!-- Generator: Adobe Illustrator 21.1.0, SVG Export Plug-In . SVG Version: 6.00 Build 0)  -->
<svg version="1.1" xmlns="http://www.w3.org/2000/svg" xmlns:xlink="http://www.w3.org/1999/xlink" x="0px" y="0px"
	 viewBox="0 0 32 32" style="enable-background:new 0 0 32 32;" xml:space="preserve">
<style type="text/css">
	.st0{fill:#FFFFFF;}
	.st1{fill:#333333;}
</style>
<g id="Calque_1">
	<rect x="5.6" y="5.8" class="st0" width="20.3" height="20.3"/>
</g>
<g id="Calque_5">
	<path class="st1" d="M18.9,13.8c-1.4,0-2,0.7-2.3,1.3V14H14c0,0.7,0,7.7,0,7.7h2.6v-4.3c0-0.2,0-0.5,0.1-0.6
		c0.2-0.5,0.6-0.9,1.3-0.9c0.9,0,1.3,0.7,1.3,1.7v4.1h2.6l0,0v-4.4C21.9,14.9,20.6,13.8,18.9,13.8z M16.6,15.1L16.6,15.1L16.6,15.1
		L16.6,15.1z"/>
</g>
<g id="Calque_4">
	<rect x="10" y="14" class="st1" width="2.6" height="7.7"/>
</g>
<g id="Calque_3">
	<path class="st1" d="M16,0.2C7.2,0.2,0,7.3,0,16.1S7.2,32,16,32s16-7.1,16-15.9S24.8,0.2,16,0.2z M24.5,23.3c0,0.7-0.6,1.2-1.3,1.2
		H8.7c-0.7,0-1.3-0.5-1.3-1.2V8.7C7.4,8,8,7.4,8.7,7.4h14.6c0.7,0,1.3,0.5,1.3,1.2L24.5,23.3L24.5,23.3z"/>
</g>
<g id="Calque_2">
	<path class="st1" d="M11.3,10.3c-0.9,0-1.5,0.6-1.5,1.3s0.6,1.3,1.4,1.3l0,0c0.9,0,1.5-0.6,1.5-1.3C12.7,10.9,12.2,10.3,11.3,10.3z
		"/>
</g>
</svg>
