<?xml version="1.0" encoding="utf-8"?>
<!-- Generator: Adobe Illustrator 21.1.0, SVG Export Plug-In . SVG Version: 6.00 Build 0)  -->
<svg version="1.1" id="Capa_1" xmlns="http://www.w3.org/2000/svg" xmlns:xlink="http://www.w3.org/1999/xlink" x="0px" y="0px"
	 viewBox="0 0 512 512" style="enable-background:new 0 0 512 512;" xml:space="preserve">
<style type="text/css">
	.st0{fill:#3C3C3C;}
</style>
<g>
	<path class="st0" d="M462.5,39l-283,0C152.3,39,142,54.9,142,74.3s10.3,35.3,37.5,35.3h282.9c27.3,0,35.6-15.9,35.6-35.3
		S489.7,39,462.5,39z"/>
	<path class="st0" d="M462.5,220.7h-413C22.3,220.7,12,236.5,12,256s10.3,35.3,37.5,35.3h412.9c27.3,0,35.6-15.9,35.6-35.3
		C498.1,236.5,489.7,220.7,462.5,220.7z"/>
	<path class="st0" d="M462.5,402.3h-283c-27.2,0-38.5,16.5-38.5,35.9c0,19.5,11.3,34.7,38.5,34.7h282.9c27.3,0,35.6-15.9,35.6-35.3
		C498.1,418.2,489.7,402.3,462.5,402.3z"/>
</g>
</svg>
