<?xml version="1.0" encoding="utf-8"?>
<!-- Generator: Adobe Illustrator 21.1.0, SVG Export Plug-In . SVG Version: 6.00 Build 0)  -->
<svg version="1.1" id="Calque_1" xmlns="http://www.w3.org/2000/svg" xmlns:xlink="http://www.w3.org/1999/xlink" x="0px" y="0px"
	 viewBox="0 0 512 640" style="enable-background:new 0 0 512 640;" xml:space="preserve">
<style type="text/css">
	.st0{fill:#E28139;}
</style>
<g>
	<g>
		<g>
			<path class="st0" d="M6,256c0-66.8,26-129.6,73.2-176.8S189.2,6,256,6s129.6,26,176.8,73.2S506,189.2,506,256
				s-26,129.6-73.2,176.8S322.8,506,256,506s-129.6-26-176.8-73.2S6,322.8,6,256z M486,256c0-126.8-103.2-230-230-230
				S26,129.2,26,256s103.2,230,230,230S486,382.8,486,256z"/>
			<g>
				<g>
					<path class="st0" d="M151.3,261.5L151.3,261.5c-8.5-8.4-8.5-22.2,0-30.7l89.2-89.3c8.4-8.5,22.2-8.5,30.7,0l89.4,89.4
						c8.5,8.4,8.5,22.2,0,30.7l0,0c-8.4,8.5-22.2,8.5-30.7,0l-58.6-58.5c-8.4-8.5-22.2-8.5-30.7,0l-58.5,58.5
						C173.6,270,159.9,270,151.3,261.5z"/>
					<path class="st0" d="M151.3,370.5L151.3,370.5c-8.5-8.4-8.5-22.2,0-30.7l89.2-89.3c8.4-8.5,22.2-8.5,30.7,0l89.4,89.4
						c8.5,8.4,8.5,22.2,0,30.7l0,0c-8.4,8.5-22.2,8.5-30.7,0l-58.6-58.5c-8.4-8.5-22.2-8.5-30.7,0l-58.5,58.5
						C173.6,379,159.9,379,151.3,370.5z"/>
				</g>
			</g>
		</g>
	</g>
</g>
</svg>
